<svg width="1440" height="768" viewBox="0 0 1440 768" fill="none" xmlns="http://www.w3.org/2000/svg">
<g clip-path="url(#clip0_3002_13113)">
<rect width="1440" height="768" fill="white"/>
<g clip-path="url(#clip1_3002_13113)">
<rect width="1440" height="770" fill="#F7F8F9"/>
<g opacity="0.4">
<rect width="1440" height="1320" fill="white"/>
<line x1="1464" y1="672.5" x2="-24" y2="672.5" stroke="#EEF0F3"/>
<line x1="1464" y1="696.5" x2="-24" y2="696.5" stroke="#EEF0F3"/>
<line x1="1464" y1="720.5" x2="-24" y2="720.5" stroke="#EEF0F3"/>
<line x1="1464" y1="744.5" x2="-24" y2="744.5" stroke="#EEF0F3"/>
<line x1="24.5" y1="648" x2="24.5" y2="1368" stroke="#EEF0F3"/>
<line x1="24.5" y1="648" x2="24.5" y2="1368" stroke="#EEF0F3"/>
<line x1="48.5" y1="648" x2="48.5" y2="1368" stroke="#EEF0F3"/>
<line x1="72.5" y1="648" x2="72.5" y2="1368" stroke="#EEF0F3"/>
<line x1="96.5" y1="648" x2="96.5" y2="1368" stroke="#EEF0F3"/>
<line x1="120.5" y1="648" x2="120.5" y2="1368" stroke="#EEF0F3"/>
<line x1="144.5" y1="648" x2="144.5" y2="1368" stroke="#EEF0F3"/>
<line x1="168.5" y1="648" x2="168.5" y2="1368" stroke="#EEF0F3"/>
<line x1="192.5" y1="648" x2="192.5" y2="1368" stroke="#EEF0F3"/>
<line x1="216.5" y1="648" x2="216.5" y2="1368" stroke="#EEF0F3"/>
<line x1="240.5" y1="648" x2="240.5" y2="1368" stroke="#EEF0F3"/>
<line x1="264.5" y1="648" x2="264.5" y2="1368" stroke="#EEF0F3"/>
<line x1="288.5" y1="648" x2="288.5" y2="1368" stroke="#EEF0F3"/>
<line x1="312.5" y1="648" x2="312.5" y2="1368" stroke="#EEF0F3"/>
<line x1="336.5" y1="648" x2="336.5" y2="1368" stroke="#EEF0F3"/>
<line x1="360.5" y1="648" x2="360.5" y2="1368" stroke="#EEF0F3"/>
<line x1="384.5" y1="648" x2="384.5" y2="1368" stroke="#EEF0F3"/>
<line x1="408.5" y1="648" x2="408.5" y2="1368" stroke="#EEF0F3"/>
<line x1="432.5" y1="648" x2="432.5" y2="1368" stroke="#EEF0F3"/>
<line x1="456.5" y1="648" x2="456.5" y2="1368" stroke="#EEF0F3"/>
<line x1="480.5" y1="648" x2="480.5" y2="1368" stroke="#EEF0F3"/>
<line x1="504.5" y1="648" x2="504.5" y2="1368" stroke="#EEF0F3"/>
<line x1="528.5" y1="648" x2="528.5" y2="1368" stroke="#EEF0F3"/>
<line x1="552.5" y1="648" x2="552.5" y2="1368" stroke="#EEF0F3"/>
<line x1="576.5" y1="648" x2="576.5" y2="1368" stroke="#EEF0F3"/>
<line x1="600.5" y1="648" x2="600.5" y2="1368" stroke="#EEF0F3"/>
<line x1="624.5" y1="648" x2="624.5" y2="1368" stroke="#EEF0F3"/>
<line x1="648.5" y1="648" x2="648.5" y2="1368" stroke="#EEF0F3"/>
<line x1="672.5" y1="648" x2="672.5" y2="1368" stroke="#EEF0F3"/>
<line x1="696.5" y1="648" x2="696.5" y2="1368" stroke="#EEF0F3"/>
<line x1="720.5" y1="648" x2="720.5" y2="1368" stroke="#EEF0F3"/>
<line x1="744.5" y1="648" x2="744.5" y2="1368" stroke="#EEF0F3"/>
<line x1="768.5" y1="648" x2="768.5" y2="1368" stroke="#EEF0F3"/>
<line x1="792.5" y1="648" x2="792.5" y2="1368" stroke="#EEF0F3"/>
<line x1="816.5" y1="648" x2="816.5" y2="1368" stroke="#EEF0F3"/>
<line x1="840.5" y1="648" x2="840.5" y2="1368" stroke="#EEF0F3"/>
<line x1="864.5" y1="648" x2="864.5" y2="1368" stroke="#EEF0F3"/>
<line x1="888.5" y1="648" x2="888.5" y2="1368" stroke="#EEF0F3"/>
<line x1="912.5" y1="648" x2="912.5" y2="1368" stroke="#EEF0F3"/>
<line x1="936.5" y1="648" x2="936.5" y2="1368" stroke="#EEF0F3"/>
<line x1="960.5" y1="648" x2="960.5" y2="1368" stroke="#EEF0F3"/>
<line x1="984.5" y1="648" x2="984.5" y2="1368" stroke="#EEF0F3"/>
<line x1="1008.5" y1="648" x2="1008.5" y2="1368" stroke="#EEF0F3"/>
<line x1="1032.5" y1="648" x2="1032.5" y2="1368" stroke="#EEF0F3"/>
<line x1="1056.5" y1="648" x2="1056.5" y2="1368" stroke="#EEF0F3"/>
<line x1="1080.5" y1="648" x2="1080.5" y2="1368" stroke="#EEF0F3"/>
<line x1="1104.5" y1="648" x2="1104.5" y2="1368" stroke="#EEF0F3"/>
<line x1="1128.5" y1="648" x2="1128.5" y2="1368" stroke="#EEF0F3"/>
<line x1="1152.5" y1="648" x2="1152.5" y2="1368" stroke="#EEF0F3"/>
<line x1="1176.5" y1="648" x2="1176.5" y2="1368" stroke="#EEF0F3"/>
<line x1="1200.5" y1="648" x2="1200.5" y2="1368" stroke="#EEF0F3"/>
<line x1="1224.5" y1="648" x2="1224.5" y2="1368" stroke="#EEF0F3"/>
<line x1="1248.5" y1="648" x2="1248.5" y2="1368" stroke="#EEF0F3"/>
<line x1="1272.5" y1="648" x2="1272.5" y2="1368" stroke="#EEF0F3"/>
<line x1="1296.5" y1="648" x2="1296.5" y2="1368" stroke="#EEF0F3"/>
<line x1="1320.5" y1="648" x2="1320.5" y2="1368" stroke="#EEF0F3"/>
<line x1="1344.5" y1="648" x2="1344.5" y2="1368" stroke="#EEF0F3"/>
<line x1="1368.5" y1="648" x2="1368.5" y2="1368" stroke="#EEF0F3"/>
<line x1="1392.5" y1="648" x2="1392.5" y2="1368" stroke="#EEF0F3"/>
<line x1="1416.5" y1="648" x2="1416.5" y2="1368" stroke="#EEF0F3"/>
<line x1="0.5" y1="-48" x2="0.499969" y2="672" stroke="#EEF0F3"/>
<line x1="1464" y1="0.5" x2="-24" y2="0.5" stroke="#EEF0F3"/>
<line x1="1464" y1="24.5" x2="-24" y2="24.5" stroke="#EEF0F3"/>
<line x1="1464" y1="48.5" x2="-24" y2="48.5" stroke="#EEF0F3"/>
<line x1="1464" y1="72.5" x2="-24" y2="72.5" stroke="#EEF0F3"/>
<line x1="1464" y1="96.5" x2="-24" y2="96.5" stroke="#EEF0F3"/>
<line x1="1464" y1="120.5" x2="-24" y2="120.5" stroke="#EEF0F3"/>
<line x1="1464" y1="144.5" x2="-24" y2="144.5" stroke="#EEF0F3"/>
<line x1="1464" y1="168.5" x2="-24" y2="168.5" stroke="#EEF0F3"/>
<line x1="1464" y1="192.5" x2="-24" y2="192.5" stroke="#EEF0F3"/>
<line x1="1464" y1="216.5" x2="-24" y2="216.5" stroke="#EEF0F3"/>
<line x1="1464" y1="240.5" x2="-24" y2="240.5" stroke="#EEF0F3"/>
<line x1="1464" y1="264.5" x2="-24" y2="264.5" stroke="#EEF0F3"/>
<line x1="1464" y1="288.5" x2="-24" y2="288.5" stroke="#EEF0F3"/>
<line x1="1464" y1="312.5" x2="-24" y2="312.5" stroke="#EEF0F3"/>
<line x1="1464" y1="336.5" x2="-24" y2="336.5" stroke="#EEF0F3"/>
<line x1="1464" y1="360.5" x2="-24" y2="360.5" stroke="#EEF0F3"/>
<line x1="1464" y1="384.5" x2="-24" y2="384.5" stroke="#EEF0F3"/>
<line x1="1464" y1="408.5" x2="-24" y2="408.5" stroke="#EEF0F3"/>
<line x1="1464" y1="432.5" x2="-24" y2="432.5" stroke="#EEF0F3"/>
<line x1="1464" y1="456.5" x2="-24" y2="456.5" stroke="#EEF0F3"/>
<line x1="1464" y1="480.5" x2="-24" y2="480.5" stroke="#EEF0F3"/>
<line x1="1464" y1="504.5" x2="-24" y2="504.5" stroke="#EEF0F3"/>
<line x1="1464" y1="528.5" x2="-24" y2="528.5" stroke="#EEF0F3"/>
<line x1="1464" y1="552.5" x2="-24" y2="552.5" stroke="#EEF0F3"/>
<line x1="1464" y1="576.5" x2="-24" y2="576.5" stroke="#EEF0F3"/>
<line x1="1464" y1="600.5" x2="-24" y2="600.5" stroke="#EEF0F3"/>
<line x1="1464" y1="624.5" x2="-24" y2="624.5" stroke="#EEF0F3"/>
<line x1="1464" y1="648.5" x2="-24" y2="648.5" stroke="#EEF0F3"/>
<line x1="24.5" y1="-48" x2="24.5" y2="672" stroke="#EEF0F3"/>
<line x1="24.5" y1="-48" x2="24.5" y2="672" stroke="#EEF0F3"/>
<line x1="48.5" y1="-48" x2="48.5" y2="672" stroke="#EEF0F3"/>
<line x1="72.5" y1="-48" x2="72.5" y2="672" stroke="#EEF0F3"/>
<line x1="96.5" y1="-48" x2="96.5" y2="672" stroke="#EEF0F3"/>
<line x1="120.5" y1="-48" x2="120.5" y2="672" stroke="#EEF0F3"/>
<line x1="144.5" y1="-48" x2="144.5" y2="672" stroke="#EEF0F3"/>
<line x1="168.5" y1="-48" x2="168.5" y2="672" stroke="#EEF0F3"/>
<line x1="192.5" y1="-48" x2="192.5" y2="672" stroke="#EEF0F3"/>
<line x1="216.5" y1="-48" x2="216.5" y2="672" stroke="#EEF0F3"/>
<line x1="240.5" y1="-48" x2="240.5" y2="672" stroke="#EEF0F3"/>
<line x1="264.5" y1="-48" x2="264.5" y2="672" stroke="#EEF0F3"/>
<line x1="288.5" y1="-48" x2="288.5" y2="672" stroke="#EEF0F3"/>
<line x1="312.5" y1="-48" x2="312.5" y2="672" stroke="#EEF0F3"/>
<line x1="336.5" y1="-48" x2="336.5" y2="672" stroke="#EEF0F3"/>
<line x1="360.5" y1="-48" x2="360.5" y2="672" stroke="#EEF0F3"/>
<line x1="384.5" y1="-48" x2="384.5" y2="672" stroke="#EEF0F3"/>
<line x1="408.5" y1="-48" x2="408.5" y2="672" stroke="#EEF0F3"/>
<line x1="432.5" y1="-48" x2="432.5" y2="672" stroke="#EEF0F3"/>
<line x1="456.5" y1="-48" x2="456.5" y2="672" stroke="#EEF0F3"/>
<line x1="480.5" y1="-48" x2="480.5" y2="672" stroke="#EEF0F3"/>
<line x1="504.5" y1="-48" x2="504.5" y2="672" stroke="#EEF0F3"/>
<line x1="528.5" y1="-48" x2="528.5" y2="672" stroke="#EEF0F3"/>
<line x1="552.5" y1="-48" x2="552.5" y2="672" stroke="#EEF0F3"/>
<line x1="576.5" y1="-48" x2="576.5" y2="672" stroke="#EEF0F3"/>
<line x1="600.5" y1="-48" x2="600.5" y2="672" stroke="#EEF0F3"/>
<line x1="624.5" y1="-48" x2="624.5" y2="672" stroke="#EEF0F3"/>
<line x1="648.5" y1="-48" x2="648.5" y2="672" stroke="#EEF0F3"/>
<line x1="672.5" y1="-48" x2="672.5" y2="672" stroke="#EEF0F3"/>
<line x1="696.5" y1="-48" x2="696.5" y2="672" stroke="#EEF0F3"/>
<line x1="720.5" y1="-48" x2="720.5" y2="672" stroke="#EEF0F3"/>
<line x1="744.5" y1="-48" x2="744.5" y2="672" stroke="#EEF0F3"/>
<line x1="768.5" y1="-48" x2="768.5" y2="672" stroke="#EEF0F3"/>
<line x1="792.5" y1="-48" x2="792.5" y2="672" stroke="#EEF0F3"/>
<line x1="816.5" y1="-48" x2="816.5" y2="672" stroke="#EEF0F3"/>
<line x1="840.5" y1="-48" x2="840.5" y2="672" stroke="#EEF0F3"/>
<line x1="864.5" y1="-48" x2="864.5" y2="672" stroke="#EEF0F3"/>
<line x1="888.5" y1="-48" x2="888.5" y2="672" stroke="#EEF0F3"/>
<line x1="912.5" y1="-48" x2="912.5" y2="672" stroke="#EEF0F3"/>
<line x1="936.5" y1="-48" x2="936.5" y2="672" stroke="#EEF0F3"/>
<line x1="960.5" y1="-48" x2="960.5" y2="672" stroke="#EEF0F3"/>
<line x1="984.5" y1="-48" x2="984.5" y2="672" stroke="#EEF0F3"/>
<line x1="1008.5" y1="-48" x2="1008.5" y2="672" stroke="#EEF0F3"/>
<line x1="1032.5" y1="-48" x2="1032.5" y2="672" stroke="#EEF0F3"/>
<line x1="1056.5" y1="-48" x2="1056.5" y2="672" stroke="#EEF0F3"/>
<line x1="1080.5" y1="-48" x2="1080.5" y2="672" stroke="#EEF0F3"/>
<line x1="1104.5" y1="-48" x2="1104.5" y2="672" stroke="#EEF0F3"/>
<line x1="1128.5" y1="-48" x2="1128.5" y2="672" stroke="#EEF0F3"/>
<line x1="1152.5" y1="-48" x2="1152.5" y2="672" stroke="#EEF0F3"/>
<line x1="1176.5" y1="-48" x2="1176.5" y2="672" stroke="#EEF0F3"/>
<line x1="1200.5" y1="-48" x2="1200.5" y2="672" stroke="#EEF0F3"/>
<line x1="1224.5" y1="-48" x2="1224.5" y2="672" stroke="#EEF0F3"/>
<line x1="1248.5" y1="-48" x2="1248.5" y2="672" stroke="#EEF0F3"/>
<line x1="1272.5" y1="-48" x2="1272.5" y2="672" stroke="#EEF0F3"/>
<line x1="1296.5" y1="-48" x2="1296.5" y2="672" stroke="#EEF0F3"/>
<line x1="1320.5" y1="-48" x2="1320.5" y2="672" stroke="#EEF0F3"/>
<line x1="1344.5" y1="-48" x2="1344.5" y2="672" stroke="#EEF0F3"/>
<line x1="1368.5" y1="-48" x2="1368.5" y2="672" stroke="#EEF0F3"/>
<line x1="1392.5" y1="-48" x2="1392.5" y2="672" stroke="#EEF0F3"/>
<line x1="1416.5" y1="-48" x2="1416.5" y2="672" stroke="#EEF0F3"/>
</g>
<rect width="1440" height="770" fill="url(#paint0_radial_3002_13113)"/>
</g>
<mask id="mask0_3002_13113" style="mask-type:alpha" maskUnits="userSpaceOnUse" x="-139" y="-139" width="279" height="279">
<circle cx="0.5" cy="0.5" r="137.576" fill="#C4C4C4" stroke="#F8BB54" stroke-width="3.84828"/>
</mask>
<g mask="url(#mask0_3002_13113)">
<path d="M-220.071 0.529505C-220.071 0.529505 -96.2263 -18.9819 -64.3933 -95.7909C-34.1353 -169.001 91.4535 -185.87 91.4535 -185.87" stroke="#F59E0B" stroke-width="4.32558" stroke-miterlimit="10"/>
<path d="M-220.071 20.828C-220.071 20.828 -81.5472 -0.538952 -45.9459 -86.0635C-12.0322 -167.539 128.404 -185.87 128.404 -185.87" stroke="#F59E0B" stroke-width="4.32558" stroke-miterlimit="10"/>
<path d="M-220.071 41.0704C-220.071 41.0704 -66.8118 17.7915 -27.4423 -76.3356C10.015 -166.021 165.355 -185.87 165.355 -185.87" stroke="#F59E0B" stroke-width="4.32558" stroke-miterlimit="10"/>
<path d="M-220.071 61.3129C-220.071 61.3129 -52.0762 36.1785 -8.99504 -66.6641C32.0616 -164.503 202.307 -185.87 202.307 -185.87" stroke="#F59E0B" stroke-width="4.32558" stroke-miterlimit="10"/>
<path d="M-220.071 81.6119C-220.071 81.6119 -37.3973 54.6219 9.50865 -56.8806C54.1088 -163.041 239.201 -185.87 239.201 -185.87" stroke="#F59E0B" stroke-width="4.32558" stroke-miterlimit="10"/>
<path d="M-220.071 101.853C-220.071 101.853 -22.6616 73.0088 27.9563 -47.1527C76.1555 -161.523 276.152 -185.87 276.152 -185.87" stroke="#F59E0B" stroke-width="4.32558" stroke-miterlimit="10"/>
<path d="M-220.071 122.152C-220.071 122.152 -7.92635 91.3953 46.4599 -37.4253C98.2026 -160.005 313.103 -185.87 313.103 -185.87" stroke="#F59E0B" stroke-width="4.32558" stroke-miterlimit="10"/>
<path d="M-220.071 142.396C-220.071 142.396 6.75289 109.783 64.9071 -27.6974C120.249 -158.542 350.053 -185.87 350.053 -185.87" stroke="#F59E0B" stroke-width="4.32558" stroke-miterlimit="10"/>
<path d="M-220.071 162.636C-220.071 162.636 21.4882 128.17 83.4108 -18.0263C142.296 -157.024 387.004 -185.87 387.004 -185.87" stroke="#F59E0B" stroke-width="4.32558" stroke-miterlimit="10"/>
<path d="M-220.071 182.935C-220.071 182.935 36.2239 146.557 101.914 -8.24242C164.343 -155.506 423.9 -185.87 423.9 -185.87" stroke="#F59E0B" stroke-width="4.32558" stroke-miterlimit="10"/>
<path d="M-220.071 203.179C-220.071 203.179 50.9028 164.943 120.362 1.42903C186.39 -154.044 460.851 -185.87 460.851 -185.87" stroke="#F59E0B" stroke-width="4.32558" stroke-miterlimit="10"/>
<path d="M-220.071 223.423C-220.071 223.423 65.6385 183.33 138.865 11.1565C208.437 -152.526 497.802 -185.87 497.802 -185.87" stroke="#F59E0B" stroke-width="4.32558" stroke-miterlimit="10"/>
<path d="M-220.071 243.722C-220.071 243.722 80.3738 201.772 157.313 20.8844C230.484 -151.008 534.753 -185.87 534.753 -185.87" stroke="#F59E0B" stroke-width="4.32558" stroke-miterlimit="10"/>
<path d="M-220.071 263.962C-220.071 263.962 95.053 220.104 175.816 30.6119C252.531 -149.546 571.649 -185.87 571.649 -185.87" stroke="#F59E0B" stroke-width="4.32558" stroke-miterlimit="10"/>
</g>
<g clip-path="url(#clip2_3002_13113)">
<path d="M1413.25 114.91C1414.71 114.91 1415.89 113.728 1415.89 112.27C1415.89 110.812 1414.71 109.63 1413.25 109.63C1411.79 109.63 1410.61 110.812 1410.61 112.27C1410.61 113.728 1411.79 114.91 1413.25 114.91Z" fill="#2AD168"/>
<path d="M1389.31 114.91C1390.77 114.91 1391.95 113.728 1391.95 112.27C1391.95 110.812 1390.77 109.63 1389.31 109.63C1387.85 109.63 1386.67 110.812 1386.67 112.27C1386.67 113.728 1387.85 114.91 1389.31 114.91Z" fill="#2AD168"/>
<path d="M1365.38 114.91C1365.9 114.912 1366.42 114.758 1366.86 114.468C1367.29 114.178 1367.63 113.765 1367.84 113.281C1368.04 112.797 1368.09 112.264 1367.99 111.749C1367.89 111.235 1367.64 110.761 1367.27 110.39C1366.9 110.018 1366.43 109.765 1365.91 109.662C1365.4 109.559 1364.86 109.611 1364.38 109.811C1363.89 110.011 1363.48 110.351 1363.19 110.787C1362.9 111.223 1362.74 111.736 1362.74 112.26C1362.74 112.961 1363.02 113.634 1363.51 114.13C1364.01 114.627 1364.68 114.907 1365.38 114.91Z" fill="#2AD168"/>
<path d="M1341.45 114.91C1341.97 114.91 1342.49 114.755 1342.92 114.464C1343.36 114.172 1343.7 113.758 1343.9 113.274C1344.1 112.79 1344.15 112.257 1344.05 111.743C1343.95 111.229 1343.69 110.757 1343.32 110.386C1342.95 110.016 1342.48 109.763 1341.97 109.661C1341.45 109.559 1340.92 109.611 1340.44 109.812C1339.95 110.012 1339.54 110.352 1339.25 110.788C1338.96 111.224 1338.8 111.736 1338.8 112.26C1338.8 112.608 1338.87 112.953 1339 113.274C1339.13 113.596 1339.33 113.888 1339.58 114.134C1339.82 114.38 1340.11 114.575 1340.44 114.708C1340.76 114.842 1341.1 114.91 1341.45 114.91Z" fill="#2AD168"/>
<path d="M1317.51 114.91C1318.97 114.91 1320.15 113.728 1320.15 112.27C1320.15 110.812 1318.97 109.63 1317.51 109.63C1316.05 109.63 1314.87 110.812 1314.87 112.27C1314.87 113.728 1316.05 114.91 1317.51 114.91Z" fill="#2AD168"/>
<path d="M1294.59 114.595C1295.94 114.041 1296.58 112.498 1296.03 111.15C1295.47 109.801 1293.93 109.158 1292.58 109.712C1291.23 110.267 1290.59 111.809 1291.14 113.158C1291.7 114.506 1293.24 115.15 1294.59 114.595Z" fill="#2AD168"/>
<path d="M1269.65 109.66C1269.13 109.658 1268.61 109.812 1268.17 110.102C1267.74 110.393 1267.4 110.807 1267.19 111.291C1266.99 111.776 1266.94 112.31 1267.04 112.824C1267.14 113.339 1267.4 113.813 1267.77 114.184C1268.14 114.555 1268.61 114.808 1269.13 114.909C1269.64 115.011 1270.17 114.958 1270.66 114.756C1271.14 114.554 1271.56 114.213 1271.85 113.776C1272.14 113.339 1272.29 112.825 1272.29 112.3C1272.29 111.601 1272.01 110.931 1271.51 110.436C1271.02 109.942 1270.35 109.663 1269.65 109.66Z" fill="#2AD168"/>
<path d="M1413.25 93.5C1414.71 93.5 1415.89 92.318 1415.89 90.86C1415.89 89.4019 1414.71 88.22 1413.25 88.22C1411.79 88.22 1410.61 89.4019 1410.61 90.86C1410.61 92.318 1411.79 93.5 1413.25 93.5Z" fill="#2AD168"/>
<path d="M1389.31 93.5C1390.77 93.5 1391.95 92.318 1391.95 90.86C1391.95 89.4019 1390.77 88.22 1389.31 88.22C1387.85 88.22 1386.67 89.4019 1386.67 90.86C1386.67 92.318 1387.85 93.5 1389.31 93.5Z" fill="#2AD168"/>
<path d="M1365.38 93.5C1365.91 93.5019 1366.42 93.3479 1366.86 93.0575C1367.29 92.7671 1367.63 92.3533 1367.84 91.8687C1368.04 91.384 1368.09 90.8504 1367.99 90.3354C1367.89 89.8204 1367.64 89.3473 1367.26 88.9761C1366.89 88.6049 1366.42 88.3523 1365.9 88.2504C1365.39 88.1485 1364.86 88.2018 1364.37 88.4036C1363.89 88.6054 1363.47 88.9466 1363.18 89.3839C1362.89 89.8213 1362.74 90.335 1362.74 90.8599C1362.74 91.5593 1363.02 92.2292 1363.52 92.7238C1364.01 93.2183 1364.68 93.4973 1365.38 93.5Z" fill="#2AD168"/>
<path d="M1341.45 93.5C1341.97 93.5 1342.49 93.3443 1342.92 93.0526C1343.36 92.761 1343.7 92.3465 1343.9 91.8617C1344.1 91.3769 1344.15 90.8436 1344.05 90.3292C1343.95 89.8149 1343.69 89.3428 1343.32 88.9726C1342.95 88.6023 1342.48 88.3508 1341.96 88.2497C1341.45 88.1485 1340.91 88.2025 1340.43 88.4046C1339.94 88.6067 1339.53 88.9479 1339.24 89.385C1338.95 89.8221 1338.8 90.3354 1338.8 90.8599C1338.8 91.2075 1338.87 91.5516 1339 91.8725C1339.14 92.1935 1339.33 92.485 1339.58 92.7302C1339.82 92.9755 1340.11 93.1698 1340.44 93.3018C1340.76 93.4339 1341.1 93.5013 1341.45 93.5Z" fill="#2AD168"/>
<path d="M1317.51 93.5C1318.97 93.5 1320.15 92.318 1320.15 90.86C1320.15 89.4019 1318.97 88.22 1317.51 88.22C1316.05 88.22 1314.87 89.4019 1314.87 90.86C1314.87 92.318 1316.05 93.5 1317.51 93.5Z" fill="#2AD168"/>
<path d="M1294.59 93.1932C1295.94 92.6388 1296.59 91.0961 1296.03 89.7476C1295.48 88.3991 1293.93 87.7554 1292.59 88.3098C1291.24 88.8643 1290.59 90.4069 1291.15 91.7554C1291.7 93.1039 1293.24 93.7476 1294.59 93.1932Z" fill="#2AD168"/>
<path d="M1269.65 93.5C1270.17 93.5 1270.69 93.3443 1271.12 93.0526C1271.56 92.761 1271.9 92.3465 1272.1 91.8617C1272.3 91.3769 1272.35 90.8436 1272.25 90.3292C1272.15 89.8149 1271.89 89.3428 1271.52 88.9726C1271.15 88.6023 1270.68 88.3508 1270.16 88.2497C1269.65 88.1485 1269.11 88.2025 1268.63 88.4046C1268.15 88.6067 1267.73 88.9479 1267.44 89.385C1267.15 89.8221 1267 90.3354 1267 90.8599C1267 91.2075 1267.07 91.5516 1267.2 91.8725C1267.34 92.1935 1267.53 92.485 1267.78 92.7302C1268.02 92.9755 1268.32 93.1698 1268.64 93.3018C1268.96 93.4339 1269.3 93.5013 1269.65 93.5Z" fill="#2AD168"/>
<path d="M1413.25 72.0901C1414.71 72.0901 1415.89 70.9081 1415.89 69.4501C1415.89 67.992 1414.71 66.8101 1413.25 66.8101C1411.79 66.8101 1410.61 67.992 1410.61 69.4501C1410.61 70.9081 1411.79 72.0901 1413.25 72.0901Z" fill="#2AD168"/>
<path d="M1389.31 72.0901C1390.77 72.0901 1391.95 70.9081 1391.95 69.4501C1391.95 67.992 1390.77 66.8101 1389.31 66.8101C1387.85 66.8101 1386.67 67.992 1386.67 69.4501C1386.67 70.9081 1387.85 72.0901 1389.31 72.0901Z" fill="#2AD168"/>
<path d="M1365.38 72.1001C1365.9 72.102 1366.42 71.9483 1366.86 71.6583C1367.29 71.3684 1367.63 70.9551 1367.84 70.4711C1368.04 69.987 1368.09 69.4539 1367.99 68.9392C1367.89 68.4245 1367.64 67.9514 1367.27 67.5798C1366.9 67.2082 1366.43 66.9548 1365.91 66.8517C1365.4 66.7486 1364.86 66.8005 1364.38 67.0008C1363.89 67.2011 1363.48 67.5408 1363.19 67.9768C1362.9 68.4128 1362.74 68.9255 1362.74 69.45C1362.74 70.1511 1363.02 70.8236 1363.51 71.3203C1364.01 71.817 1364.68 72.0974 1365.38 72.1001Z" fill="#2AD168"/>
<path d="M1341.45 72.1C1341.97 72.1 1342.49 71.9446 1342.92 71.6535C1343.36 71.3623 1343.7 70.9484 1343.9 70.4642C1344.1 69.98 1344.15 69.4471 1344.05 68.9331C1343.95 68.419 1343.69 67.9468 1343.32 67.5762C1342.95 67.2056 1342.48 66.9532 1341.97 66.851C1341.45 66.7487 1340.92 66.8012 1340.44 67.0018C1339.95 67.2024 1339.54 67.542 1339.25 67.9778C1338.96 68.4136 1338.8 68.9259 1338.8 69.45C1338.8 69.798 1338.87 70.1427 1339 70.4642C1339.13 70.7857 1339.33 71.0778 1339.58 71.3239C1339.82 71.5699 1340.11 71.7652 1340.44 71.8983C1340.76 72.0315 1341.1 72.1 1341.45 72.1Z" fill="#2AD168"/>
<path d="M1317.51 72.0901C1318.97 72.0901 1320.15 70.9081 1320.15 69.4501C1320.15 67.992 1318.97 66.8101 1317.51 66.8101C1316.05 66.8101 1314.87 67.992 1314.87 69.4501C1314.87 70.9081 1316.05 72.0901 1317.51 72.0901Z" fill="#2AD168"/>
<path d="M1294.59 71.7915C1295.94 71.2371 1296.58 69.6944 1296.03 68.3459C1295.47 66.9974 1293.93 66.3538 1292.58 66.9082C1291.23 67.4626 1290.59 69.0052 1291.15 70.3537C1291.7 71.7022 1293.24 72.346 1294.59 71.7915Z" fill="#2AD168"/>
<path d="M1269.65 72.1C1270.17 72.1 1270.69 71.9446 1271.12 71.6535C1271.56 71.3623 1271.9 70.9484 1272.1 70.4642C1272.3 69.98 1272.35 69.4471 1272.25 68.9331C1272.15 68.419 1271.89 67.9468 1271.52 67.5762C1271.15 67.2056 1270.68 66.9532 1270.17 66.851C1269.65 66.7487 1269.12 66.8012 1268.64 67.0018C1268.15 67.2024 1267.74 67.542 1267.45 67.9778C1267.16 68.4136 1267 68.9259 1267 69.45C1267 70.1528 1267.28 70.8269 1267.78 71.3239C1268.27 71.8208 1268.95 72.1 1269.65 72.1Z" fill="#2AD168"/>
<path d="M1413.25 50.6899C1414.71 50.6899 1415.89 49.5079 1415.89 48.0499C1415.89 46.5919 1414.71 45.4099 1413.25 45.4099C1411.79 45.4099 1410.61 46.5919 1410.61 48.0499C1410.61 49.5079 1411.79 50.6899 1413.25 50.6899Z" fill="#2AD168"/>
<path d="M1389.31 50.6899C1390.77 50.6899 1391.95 49.5079 1391.95 48.0499C1391.95 46.5919 1390.77 45.4099 1389.31 45.4099C1387.85 45.4099 1386.67 46.5919 1386.67 48.0499C1386.67 49.5079 1387.85 50.6899 1389.31 50.6899Z" fill="#2AD168"/>
<path d="M1365.38 50.6601C1365.91 50.6621 1366.42 50.5081 1366.86 50.2177C1367.29 49.9272 1367.63 49.5135 1367.84 49.0288C1368.04 48.5442 1368.09 48.0105 1367.99 47.4956C1367.89 46.9806 1367.64 46.5075 1367.26 46.1363C1366.89 45.7651 1366.42 45.5125 1365.9 45.4105C1365.39 45.3086 1364.86 45.3619 1364.37 45.5637C1363.89 45.7656 1363.47 46.1068 1363.18 46.5441C1362.89 46.9814 1362.74 47.4951 1362.74 48.0201C1362.74 48.7195 1363.02 49.3895 1363.52 49.884C1364.01 50.3785 1364.68 50.6575 1365.38 50.6601Z" fill="#2AD168"/>
<path d="M1341.45 50.6601C1341.97 50.6601 1342.49 50.5044 1342.92 50.2128C1343.36 49.9212 1343.7 49.5067 1343.9 49.0219C1344.1 48.5371 1344.15 48.0038 1344.05 47.4895C1343.95 46.9751 1343.69 46.503 1343.32 46.1328C1342.95 45.7626 1342.48 45.5109 1341.96 45.4098C1341.45 45.3087 1340.91 45.3626 1340.43 45.5647C1339.94 45.7668 1339.53 46.108 1339.24 46.5451C1338.95 46.9822 1338.8 47.4956 1338.8 48.0201C1338.8 48.3676 1338.87 48.7118 1339 49.0327C1339.14 49.3537 1339.33 49.6451 1339.58 49.8904C1339.82 50.1357 1340.11 50.33 1340.44 50.4621C1340.76 50.5941 1341.1 50.6614 1341.45 50.6601Z" fill="#2AD168"/>
<path d="M1317.51 50.6899C1318.97 50.6899 1320.15 49.5079 1320.15 48.0499C1320.15 46.5919 1318.97 45.4099 1317.51 45.4099C1316.05 45.4099 1314.87 46.5919 1314.87 48.0499C1314.87 49.5079 1316.05 50.6899 1317.51 50.6899Z" fill="#2AD168"/>
<path d="M1294.59 50.3892C1295.94 49.8348 1296.59 48.2922 1296.03 46.9437C1295.48 45.5952 1293.93 44.9514 1292.59 45.5059C1291.24 46.0603 1290.59 47.603 1291.15 48.9515C1291.7 50.3 1293.25 50.9437 1294.59 50.3892Z" fill="#2AD168"/>
<path d="M1269.65 50.6601C1270.17 50.6601 1270.69 50.5044 1271.12 50.2128C1271.56 49.9212 1271.9 49.5067 1272.1 49.0219C1272.3 48.5371 1272.35 48.0038 1272.25 47.4895C1272.15 46.9751 1271.89 46.503 1271.52 46.1328C1271.15 45.7626 1270.68 45.5109 1270.16 45.4098C1269.65 45.3087 1269.11 45.3626 1268.63 45.5647C1268.15 45.7668 1267.73 46.108 1267.44 46.5451C1267.15 46.9822 1267 47.4956 1267 48.0201C1267 48.3676 1267.07 48.7118 1267.2 49.0327C1267.34 49.3537 1267.53 49.6451 1267.78 49.8904C1268.02 50.1357 1268.32 50.33 1268.64 50.4621C1268.96 50.5941 1269.3 50.6614 1269.65 50.6601Z" fill="#2AD168"/>
<path d="M1413.25 29.28C1414.71 29.28 1415.89 28.098 1415.89 26.64C1415.89 25.182 1414.71 24 1413.25 24C1411.79 24 1410.61 25.182 1410.61 26.64C1410.61 28.098 1411.79 29.28 1413.25 29.28Z" fill="#2AD168"/>
<path d="M1389.31 29.28C1390.77 29.28 1391.95 28.098 1391.95 26.64C1391.95 25.182 1390.77 24 1389.31 24C1387.85 24 1386.67 25.182 1386.67 26.64C1386.67 28.098 1387.85 29.28 1389.31 29.28Z" fill="#2AD168"/>
<path d="M1365.38 29.29C1365.9 29.292 1366.42 29.1383 1366.86 28.8483C1367.29 28.5583 1367.63 28.1451 1367.84 27.661C1368.04 27.177 1368.09 26.6439 1367.99 26.1292C1367.89 25.6145 1367.64 25.1413 1367.27 24.7697C1366.9 24.3981 1366.43 24.1447 1365.91 24.0416C1365.4 23.9386 1364.86 23.9905 1364.38 24.1908C1363.89 24.391 1363.48 24.7307 1363.19 25.1667C1362.9 25.6027 1362.74 26.1154 1362.74 26.64C1362.74 27.3411 1363.02 28.0136 1363.51 28.5103C1364.01 29.007 1364.68 29.2874 1365.38 29.29Z" fill="#2AD168"/>
<path d="M1341.45 29.29C1341.97 29.29 1342.49 29.1346 1342.92 28.8434C1343.36 28.5522 1343.7 28.1384 1343.9 27.6541C1344.1 27.1699 1344.15 26.637 1344.05 26.123C1343.95 25.6089 1343.69 25.1367 1343.32 24.7661C1342.95 24.3955 1342.48 24.1432 1341.97 24.0409C1341.45 23.9387 1340.92 23.9912 1340.44 24.1917C1339.95 24.3923 1339.54 24.7319 1339.25 25.1677C1338.96 25.6035 1338.8 26.1158 1338.8 26.64C1338.8 26.988 1338.87 27.3326 1339 27.6541C1339.13 27.9756 1339.33 28.2677 1339.58 28.5138C1339.82 28.7599 1340.11 28.9551 1340.44 29.0883C1340.76 29.2214 1341.1 29.29 1341.45 29.29Z" fill="#2AD168"/>
<path d="M1317.51 29.28C1318.97 29.28 1320.15 28.098 1320.15 26.64C1320.15 25.182 1318.97 24 1317.51 24C1316.05 24 1314.87 25.182 1314.87 26.64C1314.87 28.098 1316.05 29.28 1317.51 29.28Z" fill="#2AD168"/>
<path d="M1294.59 28.9776C1295.94 28.4231 1296.58 26.8805 1296.03 25.532C1295.48 24.1835 1293.93 23.5398 1292.58 24.0942C1291.24 24.6487 1290.59 26.1913 1291.15 27.5398C1291.7 28.8883 1293.24 29.532 1294.59 28.9776Z" fill="#2AD168"/>
<path d="M1269.65 29.29C1270.17 29.29 1270.69 29.1346 1271.12 28.8434C1271.56 28.5522 1271.9 28.1384 1272.1 27.6541C1272.3 27.1699 1272.35 26.637 1272.25 26.123C1272.15 25.6089 1271.89 25.1367 1271.52 24.7661C1271.15 24.3955 1270.68 24.1432 1270.17 24.0409C1269.65 23.9387 1269.12 23.9912 1268.64 24.1917C1268.15 24.3923 1267.74 24.7319 1267.45 25.1677C1267.16 25.6035 1267 26.1158 1267 26.64C1267 27.3428 1267.28 28.0168 1267.78 28.5138C1268.27 29.0108 1268.95 29.29 1269.65 29.29Z" fill="#2AD168"/>
</g>
<g clip-path="url(#clip3_3002_13113)">
<path d="M170.25 743.91C171.708 743.91 172.89 742.728 172.89 741.27C172.89 739.812 171.708 738.63 170.25 738.63C168.792 738.63 167.61 739.812 167.61 741.27C167.61 742.728 168.792 743.91 170.25 743.91Z" fill="#A855F7"/>
<path d="M146.31 743.91C147.768 743.91 148.95 742.728 148.95 741.27C148.95 739.812 147.768 738.63 146.31 738.63C144.852 738.63 143.67 739.812 143.67 741.27C143.67 742.728 144.852 743.91 146.31 743.91Z" fill="#A855F7"/>
<path d="M122.38 743.91C122.905 743.912 123.418 743.758 123.855 743.468C124.292 743.178 124.634 742.765 124.836 742.281C125.038 741.797 125.092 741.264 124.991 740.749C124.889 740.235 124.638 739.761 124.268 739.39C123.897 739.018 123.425 738.765 122.911 738.662C122.397 738.559 121.863 738.611 121.379 738.811C120.894 739.011 120.479 739.351 120.188 739.787C119.896 740.223 119.74 740.736 119.74 741.26C119.74 741.961 120.018 742.634 120.513 743.13C121.008 743.627 121.679 743.907 122.38 743.91Z" fill="#A855F7"/>
<path d="M98.4498 743.91C98.9739 743.91 99.4863 743.755 99.9221 743.464C100.358 743.172 100.697 742.758 100.898 742.274C101.099 741.79 101.151 741.257 101.049 740.743C100.947 740.229 100.694 739.757 100.324 739.386C99.953 739.016 99.4808 738.763 98.9668 738.661C98.4527 738.559 97.9199 738.611 97.4357 738.812C96.9514 739.012 96.5376 739.352 96.2465 739.788C95.9553 740.224 95.7998 740.736 95.7998 741.26C95.7998 741.608 95.8683 741.953 96.0015 742.274C96.1346 742.596 96.3299 742.888 96.5759 743.134C96.822 743.38 97.1142 743.575 97.4357 743.708C97.7572 743.842 98.1018 743.91 98.4498 743.91Z" fill="#A855F7"/>
<path d="M74.5101 743.91C75.9681 743.91 77.1501 742.728 77.1501 741.27C77.1501 739.812 75.9681 738.63 74.5101 738.63C73.0521 738.63 71.8701 739.812 71.8701 741.27C71.8701 742.728 73.0521 743.91 74.5101 743.91Z" fill="#A855F7"/>
<path d="M51.5901 743.595C52.9386 743.041 53.5823 741.498 53.0279 740.15C52.4735 738.801 50.9308 738.158 49.5823 738.712C48.2338 739.267 47.5901 740.809 48.1445 742.158C48.6989 743.506 50.2416 744.15 51.5901 743.595Z" fill="#A855F7"/>
<path d="M26.6502 738.66C26.1252 738.658 25.6115 738.812 25.1742 739.102C24.7369 739.393 24.3957 739.807 24.1939 740.291C23.9921 740.776 23.9387 741.31 24.0407 741.824C24.1426 742.339 24.3952 742.813 24.7664 743.184C25.1376 743.555 25.6107 743.808 26.1256 743.909C26.6406 744.011 27.1743 743.958 27.659 743.756C28.1436 743.554 28.5574 743.213 28.8478 742.776C29.1382 742.339 29.2922 741.825 29.2902 741.3C29.2875 740.601 29.0086 739.931 28.5141 739.436C28.0195 738.942 27.3495 738.663 26.6502 738.66Z" fill="#A855F7"/>
<path d="M170.25 722.5C171.708 722.5 172.89 721.318 172.89 719.86C172.89 718.402 171.708 717.22 170.25 717.22C168.792 717.22 167.61 718.402 167.61 719.86C167.61 721.318 168.792 722.5 170.25 722.5Z" fill="#A855F7"/>
<path d="M146.31 722.5C147.768 722.5 148.95 721.318 148.95 719.86C148.95 718.402 147.768 717.22 146.31 717.22C144.852 717.22 143.67 718.402 143.67 719.86C143.67 721.318 144.852 722.5 146.31 722.5Z" fill="#A855F7"/>
<path d="M122.38 722.5C122.905 722.502 123.419 722.348 123.856 722.058C124.294 721.767 124.635 721.353 124.837 720.869C125.038 720.384 125.092 719.85 124.99 719.335C124.888 718.82 124.635 718.347 124.264 717.976C123.893 717.605 123.42 717.352 122.905 717.25C122.39 717.148 121.856 717.202 121.372 717.404C120.887 717.605 120.473 717.947 120.183 718.384C119.892 718.821 119.738 719.335 119.74 719.86C119.743 720.559 120.022 721.229 120.516 721.724C121.011 722.218 121.681 722.497 122.38 722.5Z" fill="#A855F7"/>
<path d="M98.4498 722.5C98.9744 722.5 99.4871 722.344 99.9231 722.053C100.359 721.761 100.699 721.347 100.899 720.862C101.099 720.377 101.151 719.844 101.048 719.329C100.945 718.815 100.692 718.343 100.32 717.973C99.9485 717.602 99.4753 717.351 98.9606 717.25C98.4459 717.149 97.9128 717.202 97.4287 717.405C96.9447 717.607 96.5316 717.948 96.2416 718.385C95.9516 718.822 95.7978 719.335 95.7998 719.86C95.7998 720.207 95.8684 720.552 96.0017 720.873C96.135 721.193 96.3304 721.485 96.5766 721.73C96.8228 721.976 97.115 722.17 97.4364 722.302C97.7579 722.434 98.1023 722.501 98.4498 722.5Z" fill="#A855F7"/>
<path d="M74.5101 722.5C75.9681 722.5 77.1501 721.318 77.1501 719.86C77.1501 718.402 75.9681 717.22 74.5101 717.22C73.0521 717.22 71.8701 718.402 71.8701 719.86C71.8701 721.318 73.0521 722.5 74.5101 722.5Z" fill="#A855F7"/>
<path d="M51.593 722.193C52.9416 721.639 53.5853 720.096 53.0308 718.748C52.4764 717.399 50.9337 716.755 49.5852 717.31C48.2367 717.864 47.593 719.407 48.1475 720.755C48.7019 722.104 50.2445 722.748 51.593 722.193Z" fill="#A855F7"/>
<path d="M26.65 722.5C27.1746 722.5 27.6873 722.344 28.1233 722.053C28.5593 721.761 28.899 721.347 29.0993 720.862C29.2995 720.377 29.3515 719.844 29.2484 719.329C29.1454 718.815 28.8919 718.343 28.5203 717.973C28.1487 717.602 27.6756 717.351 27.1609 717.25C26.6462 717.149 26.1131 717.202 25.629 717.405C25.145 717.607 24.7318 717.948 24.4418 718.385C24.1518 718.822 23.998 719.335 24 719.86C24 720.207 24.0686 720.552 24.2019 720.873C24.3352 721.193 24.5307 721.485 24.7769 721.73C25.0231 721.976 25.3153 722.17 25.6367 722.302C25.9582 722.434 26.3025 722.501 26.65 722.5Z" fill="#A855F7"/>
<path d="M170.25 701.09C171.708 701.09 172.89 699.908 172.89 698.45C172.89 696.992 171.708 695.81 170.25 695.81C168.792 695.81 167.61 696.992 167.61 698.45C167.61 699.908 168.792 701.09 170.25 701.09Z" fill="#A855F7"/>
<path d="M146.31 701.09C147.768 701.09 148.95 699.908 148.95 698.45C148.95 696.992 147.768 695.81 146.31 695.81C144.852 695.81 143.67 696.992 143.67 698.45C143.67 699.908 144.852 701.09 146.31 701.09Z" fill="#A855F7"/>
<path d="M122.38 701.1C122.905 701.102 123.418 700.948 123.855 700.658C124.292 700.368 124.634 699.955 124.836 699.471C125.038 698.987 125.092 698.454 124.991 697.939C124.889 697.425 124.638 696.951 124.268 696.58C123.897 696.208 123.425 695.955 122.911 695.852C122.397 695.749 121.863 695.801 121.379 696.001C120.894 696.201 120.479 696.541 120.188 696.977C119.896 697.413 119.74 697.925 119.74 698.45C119.74 699.151 120.018 699.824 120.513 700.32C121.008 700.817 121.679 701.097 122.38 701.1Z" fill="#A855F7"/>
<path d="M98.4498 701.1C98.9739 701.1 99.4863 700.945 99.9221 700.653C100.358 700.362 100.697 699.948 100.898 699.464C101.099 698.98 101.151 698.447 101.049 697.933C100.947 697.419 100.694 696.947 100.324 696.576C99.953 696.206 99.4808 695.953 98.9668 695.851C98.4527 695.749 97.9199 695.801 97.4357 696.002C96.9514 696.202 96.5376 696.542 96.2465 696.978C95.9553 697.414 95.7998 697.926 95.7998 698.45C95.7998 698.798 95.8683 699.143 96.0015 699.464C96.1346 699.786 96.3299 700.078 96.5759 700.324C96.822 700.57 97.1142 700.765 97.4357 700.898C97.7572 701.032 98.1018 701.1 98.4498 701.1Z" fill="#A855F7"/>
<path d="M74.5101 701.09C75.9681 701.09 77.1501 699.908 77.1501 698.45C77.1501 696.992 75.9681 695.81 74.5101 695.81C73.0521 695.81 71.8701 696.992 71.8701 698.45C71.8701 699.908 73.0521 701.09 74.5101 701.09Z" fill="#A855F7"/>
<path d="M51.5911 700.792C52.9396 700.237 53.5833 698.694 53.0289 697.346C52.4744 695.997 50.9318 695.354 49.5833 695.908C48.2348 696.463 47.591 698.005 48.1455 699.354C48.6999 700.702 50.2426 701.346 51.5911 700.792Z" fill="#A855F7"/>
<path d="M26.65 701.1C27.1741 701.1 27.6865 700.945 28.1223 700.653C28.5581 700.362 28.8977 699.948 29.0983 699.464C29.2988 698.98 29.3514 698.447 29.2491 697.933C29.1469 697.419 28.8945 696.947 28.5239 696.576C28.1533 696.206 27.681 695.953 27.167 695.851C26.6529 695.749 26.1202 695.801 25.636 696.002C25.1518 696.202 24.7378 696.542 24.4467 696.978C24.1555 697.414 24 697.926 24 698.45C24 699.153 24.2793 699.827 24.7762 700.324C25.2732 700.821 25.9472 701.1 26.65 701.1Z" fill="#A855F7"/>
<path d="M170.25 679.69C171.708 679.69 172.89 678.508 172.89 677.05C172.89 675.592 171.708 674.41 170.25 674.41C168.792 674.41 167.61 675.592 167.61 677.05C167.61 678.508 168.792 679.69 170.25 679.69Z" fill="#A855F7"/>
<path d="M146.31 679.69C147.768 679.69 148.95 678.508 148.95 677.05C148.95 675.592 147.768 674.41 146.31 674.41C144.852 674.41 143.67 675.592 143.67 677.05C143.67 678.508 144.852 679.69 146.31 679.69Z" fill="#A855F7"/>
<path d="M122.38 679.66C122.905 679.662 123.419 679.508 123.856 679.218C124.294 678.927 124.635 678.513 124.837 678.029C125.038 677.544 125.092 677.011 124.99 676.496C124.888 675.981 124.635 675.508 124.264 675.136C123.893 674.765 123.42 674.512 122.905 674.411C122.39 674.309 121.856 674.362 121.372 674.564C120.887 674.766 120.473 675.107 120.183 675.544C119.892 675.981 119.738 676.495 119.74 677.02C119.743 677.719 120.022 678.389 120.516 678.884C121.011 679.379 121.681 679.657 122.38 679.66Z" fill="#A855F7"/>
<path d="M98.4498 679.66C98.9744 679.66 99.4871 679.504 99.9231 679.213C100.359 678.921 100.699 678.507 100.899 678.022C101.099 677.537 101.151 677.004 101.048 676.489C100.945 675.975 100.692 675.503 100.32 675.133C99.9485 674.763 99.4753 674.511 98.9606 674.41C98.4459 674.309 97.9128 674.363 97.4287 674.565C96.9447 674.767 96.5316 675.108 96.2416 675.545C95.9516 675.982 95.7978 676.496 95.7998 677.02C95.7998 677.368 95.8684 677.712 96.0017 678.033C96.135 678.354 96.3304 678.645 96.5766 678.89C96.8228 679.136 97.115 679.33 97.4364 679.462C97.7579 679.594 98.1023 679.661 98.4498 679.66Z" fill="#A855F7"/>
<path d="M74.5101 679.69C75.9681 679.69 77.1501 678.508 77.1501 677.05C77.1501 675.592 75.9681 674.41 74.5101 674.41C73.0521 674.41 71.8701 675.592 71.8701 677.05C71.8701 678.508 73.0521 679.69 74.5101 679.69Z" fill="#A855F7"/>
<path d="M51.594 679.389C52.9425 678.835 53.5863 677.292 53.0318 675.944C52.4774 674.595 50.9347 673.951 49.5862 674.506C48.2377 675.06 47.594 676.603 48.1484 677.951C48.7029 679.3 50.2455 679.944 51.594 679.389Z" fill="#A855F7"/>
<path d="M26.65 679.66C27.1746 679.66 27.6873 679.504 28.1233 679.213C28.5593 678.921 28.899 678.507 29.0993 678.022C29.2995 677.537 29.3515 677.004 29.2484 676.489C29.1454 675.975 28.8919 675.503 28.5203 675.133C28.1487 674.763 27.6756 674.511 27.1609 674.41C26.6462 674.309 26.1131 674.363 25.629 674.565C25.145 674.767 24.7318 675.108 24.4418 675.545C24.1518 675.982 23.998 676.496 24 677.02C24 677.368 24.0686 677.712 24.2019 678.033C24.3352 678.354 24.5307 678.645 24.7769 678.89C25.0231 679.136 25.3153 679.33 25.6367 679.462C25.9582 679.594 26.3025 679.661 26.65 679.66Z" fill="#A855F7"/>
<path d="M170.25 658.28C171.708 658.28 172.89 657.098 172.89 655.64C172.89 654.182 171.708 653 170.25 653C168.792 653 167.61 654.182 167.61 655.64C167.61 657.098 168.792 658.28 170.25 658.28Z" fill="#A855F7"/>
<path d="M146.31 658.28C147.768 658.28 148.95 657.098 148.95 655.64C148.95 654.182 147.768 653 146.31 653C144.852 653 143.67 654.182 143.67 655.64C143.67 657.098 144.852 658.28 146.31 658.28Z" fill="#A855F7"/>
<path d="M122.38 658.29C122.905 658.292 123.418 658.138 123.855 657.848C124.292 657.558 124.634 657.145 124.836 656.661C125.038 656.177 125.092 655.644 124.991 655.129C124.889 654.614 124.638 654.141 124.268 653.77C123.897 653.398 123.425 653.145 122.911 653.042C122.397 652.939 121.863 652.99 121.379 653.191C120.894 653.391 120.479 653.731 120.188 654.167C119.896 654.603 119.74 655.115 119.74 655.64C119.74 656.341 120.018 657.014 120.513 657.51C121.008 658.007 121.679 658.287 122.38 658.29Z" fill="#A855F7"/>
<path d="M98.4498 658.29C98.9739 658.29 99.4863 658.135 99.9221 657.843C100.358 657.552 100.697 657.138 100.898 656.654C101.099 656.17 101.151 655.637 101.049 655.123C100.947 654.609 100.694 654.137 100.324 653.766C99.953 653.396 99.4808 653.143 98.9668 653.041C98.4527 652.939 97.9199 652.991 97.4357 653.192C96.9514 653.392 96.5376 653.732 96.2465 654.168C95.9553 654.604 95.7998 655.116 95.7998 655.64C95.7998 655.988 95.8683 656.333 96.0015 656.654C96.1346 656.976 96.3299 657.268 96.5759 657.514C96.822 657.76 97.1142 657.955 97.4357 658.088C97.7572 658.221 98.1018 658.29 98.4498 658.29Z" fill="#A855F7"/>
<path d="M74.5101 658.28C75.9681 658.28 77.1501 657.098 77.1501 655.64C77.1501 654.182 75.9681 653 74.5101 653C73.0521 653 71.8701 654.182 71.8701 655.64C71.8701 657.098 73.0521 658.28 74.5101 658.28Z" fill="#A855F7"/>
<path d="M51.592 657.978C52.9406 657.423 53.5843 655.88 53.0298 654.532C52.4754 653.183 50.9328 652.54 49.5843 653.094C48.2358 653.649 47.592 655.191 48.1465 656.54C48.7009 657.888 50.2435 658.532 51.592 657.978Z" fill="#A855F7"/>
<path d="M26.65 658.29C27.1741 658.29 27.6865 658.135 28.1223 657.843C28.5581 657.552 28.8977 657.138 29.0983 656.654C29.2988 656.17 29.3514 655.637 29.2491 655.123C29.1469 654.609 28.8945 654.137 28.5239 653.766C28.1533 653.396 27.681 653.143 27.167 653.041C26.6529 652.939 26.1202 652.991 25.636 653.192C25.1518 653.392 24.7378 653.732 24.4467 654.168C24.1555 654.604 24 655.116 24 655.64C24 656.343 24.2793 657.017 24.7762 657.514C25.2732 658.011 25.9472 658.29 26.65 658.29Z" fill="#A855F7"/>
</g>
<mask id="mask1_3002_13113" style="mask-type:alpha" maskUnits="userSpaceOnUse" x="1300" y="628" width="279" height="279">
<circle cx="1439.5" cy="767.5" r="137.576" fill="#C4C4C4" stroke="#F8BB54" stroke-width="3.84828"/>
</mask>
<g mask="url(#mask1_3002_13113)">
<path d="M1218.93 686.504C1218.93 686.504 1283.89 674.47 1300.65 632.355C1316.68 591.982 1382.71 581.13 1382.71 581.13" stroke="#EF5944" stroke-width="4.32558" stroke-miterlimit="10"/>
<path d="M1218.93 706.746C1218.93 706.746 1298.62 692.857 1319.15 642.026C1338.72 593.5 1419.66 581.13 1419.66 581.13" stroke="#EF5944" stroke-width="4.32558" stroke-miterlimit="10"/>
<path d="M1218.93 727.045C1218.93 727.045 1313.3 711.244 1337.6 651.81C1360.77 594.963 1456.61 581.13 1456.61 581.13" stroke="#EF5944" stroke-width="4.32558" stroke-miterlimit="10"/>
<path d="M1218.93 747.287C1218.93 747.287 1328.04 729.631 1356.1 661.482C1382.82 596.481 1493.56 581.13 1493.56 581.13" stroke="#EF5944" stroke-width="4.32558" stroke-miterlimit="10"/>
<path d="M1218.93 767.53C1218.93 767.53 1342.77 748.018 1374.61 671.209C1404.86 597.999 1530.45 581.13 1530.45 581.13" stroke="#EF5944" stroke-width="4.32558" stroke-miterlimit="10"/>
<path d="M1218.93 787.828C1218.93 787.828 1357.45 766.461 1393.05 680.937C1426.97 599.461 1567.4 581.13 1567.4 581.13" stroke="#EF5944" stroke-width="4.32558" stroke-miterlimit="10"/>
<path d="M1218.93 808.07C1218.93 808.07 1372.19 784.792 1411.56 690.664C1449.01 600.979 1604.36 581.13 1604.36 581.13" stroke="#EF5944" stroke-width="4.32558" stroke-miterlimit="10"/>
<path d="M1218.93 828.313C1218.93 828.313 1386.92 803.178 1430 700.336C1471.06 602.497 1641.31 581.13 1641.31 581.13" stroke="#EF5944" stroke-width="4.32558" stroke-miterlimit="10"/>
<path d="M1218.93 848.612C1218.93 848.612 1401.6 821.622 1448.51 710.119C1493.11 603.959 1678.2 581.13 1678.2 581.13" stroke="#EF5944" stroke-width="4.32558" stroke-miterlimit="10"/>
<path d="M1218.93 868.853C1218.93 868.853 1416.34 840.009 1466.96 719.847C1515.16 605.477 1715.15 581.13 1715.15 581.13" stroke="#EF5944" stroke-width="4.32558" stroke-miterlimit="10"/>
<path d="M1218.93 889.152C1218.93 889.152 1431.07 858.395 1485.46 729.575C1537.2 606.995 1752.1 581.13 1752.1 581.13" stroke="#EF5944" stroke-width="4.32558" stroke-miterlimit="10"/>
<path d="M1218.93 909.396C1218.93 909.396 1445.75 876.783 1503.91 739.303C1559.25 608.458 1789.05 581.13 1789.05 581.13" stroke="#EF5944" stroke-width="4.32558" stroke-miterlimit="10"/>
<path d="M1218.93 929.636C1218.93 929.636 1460.49 895.17 1522.41 748.974C1581.3 609.976 1826 581.13 1826 581.13" stroke="#EF5944" stroke-width="4.32558" stroke-miterlimit="10"/>
<path d="M1218.93 949.935C1218.93 949.935 1475.22 913.557 1540.91 758.758C1603.34 611.494 1862.9 581.13 1862.9 581.13" stroke="#EF5944" stroke-width="4.32558" stroke-miterlimit="10"/>
<path d="M1218.93 970.179C1218.93 970.179 1489.9 931.943 1559.36 768.429C1625.39 612.956 1899.85 581.13 1899.85 581.13" stroke="#EF5944" stroke-width="4.32558" stroke-miterlimit="10"/>
<path d="M1218.93 990.423C1218.93 990.423 1504.64 950.33 1577.87 778.157C1647.44 614.474 1936.8 581.13 1936.8 581.13" stroke="#EF5944" stroke-width="4.32558" stroke-miterlimit="10"/>
<path d="M1218.93 1010.72C1218.93 1010.72 1519.37 968.772 1596.31 787.884C1669.48 615.992 1973.75 581.13 1973.75 581.13" stroke="#EF5944" stroke-width="4.32558" stroke-miterlimit="10"/>
<path d="M1218.93 1030.96C1218.93 1030.96 1534.05 987.104 1614.82 797.612C1691.53 617.454 2010.65 581.13 2010.65 581.13" stroke="#EF5944" stroke-width="4.32558" stroke-miterlimit="10"/>
</g>
</g>
<defs>
<radialGradient id="paint0_radial_3002_13113" cx="0" cy="0" r="1" gradientUnits="userSpaceOnUse" gradientTransform="translate(720 385) rotate(90) scale(385 720)">
<stop stop-color="white" stop-opacity="0"/>
<stop offset="1" stop-color="white"/>
</radialGradient>
<clipPath id="clip0_3002_13113">
<rect width="1440" height="768" fill="white"/>
</clipPath>
<clipPath id="clip1_3002_13113">
<rect width="1440" height="770" fill="white"/>
</clipPath>
<clipPath id="clip2_3002_13113">
<rect width="148.89" height="90.91" fill="white" transform="translate(1267 24)"/>
</clipPath>
<clipPath id="clip3_3002_13113">
<rect width="148.89" height="90.91" fill="white" transform="translate(24 653)"/>
</clipPath>
</defs>
</svg>
